<?xml version="1.0" encoding="utf-8"?>
<!-- Generator: Adobe Illustrator 19.1.0, SVG Export Plug-In . SVG Version: 6.00 Build 0)  -->
<svg version="1.1" id="Layer_1" xmlns="http://www.w3.org/2000/svg" xmlns:xlink="http://www.w3.org/1999/xlink" x="0px" y="0px"
	 viewBox="0 0 512 512" style="enable-background:new 0 0 512 512;" xml:space="preserve">
<style type="text/css">
	.st0{fill:#010202;}
</style>
<g>
	<g>
		<path class="st0" d="M303,316.1c-2.9,0-5.7-1-8-3.1c-10.8-9.5-24.6-14.8-39-14.8c-14.4,0-28.2,5.2-39,14.8c-5,4.5-12.7,4-17.1-1
			c-4.4-5-4-12.7,1-17.1c15.2-13.5,34.8-20.9,55.1-20.9c20.3,0,39.8,7.4,55.1,20.9c5,4.4,5.5,12.1,1,17.1
			C309.7,314.7,306.4,316.1,303,316.1z M174.2,264.5c-3.4,0-6.7-1.4-9.1-4.1c-4.4-5-4-12.7,1-17.1c24.8-22,56.7-34.1,89.9-34.1
			c33.1,0,65.1,12.1,89.9,34.1c5,4.4,5.5,12.1,1,17.1c-4.4,5-12.1,5.5-17.1,1c-20.4-18-46.6-28-73.8-28c-27.2,0-53.4,9.9-73.8,28
			C179.9,263.5,177,264.5,174.2,264.5z"/>
	</g>
	<g>
		<path class="st0" d="M274.5,350.8c0,10.2-8.3,18.5-18.5,18.5c-10.2,0-18.5-8.3-18.5-18.5c0-10.2,8.3-18.5,18.5-18.5
			C266.2,332.3,274.5,340.6,274.5,350.8"/>
	</g>
	<g>
		<path class="st0" d="M386.1,427H125.9C56.5,427,0,374,0,308.9c0-65.1,56.5-118,125.9-118c1.6,0,3.2,0,4.9,0.1
			c6.5-59.4,60.2-106,125.2-106c65.1,0,118.8,46.5,125.2,106c1.7-0.1,3.3-0.1,4.9-0.1c69.4,0,125.9,52.9,125.9,118
			C512,374,455.5,427,386.1,427z M125.9,215.2c-56,0-101.6,42-101.6,93.7c0,51.7,45.6,93.7,101.6,93.7h260.2
			c56,0,101.6-42,101.6-93.7c0-51.7-45.6-93.7-101.6-93.7c-4.4,0-9.2,0.4-14.8,1.1l-14,1.9l0.3-15.5c0-51.4-45.6-93.4-101.6-93.4
			c-56,0-101.6,42-101.6,93.7l0.1,1.1l0.2,14.1l-14-1.9C135,215.6,130.3,215.2,125.9,215.2z"/>
	</g>
</g>
</svg>
